<mxfile host="app.diagrams.net" agent="Mozilla/5.0 (Windows NT 10.0; Win64; x64) AppleWebKit/537.36 (KHTML, like Gecko) Chrome/134.0.0.0 Safari/537.36 Edg/134.0.0.0" version="26.1.1">
  <diagram name="Page-1" id="vk_6JSXWLmud9PY2ugOc">
    <mxGraphModel dx="2175" dy="3554" grid="1" gridSize="10" guides="1" tooltips="1" connect="1" arrows="1" fold="1" page="1" pageScale="1" pageWidth="827" pageHeight="1169" math="0" shadow="0">
      <root>
        <mxCell id="0" />
        <mxCell id="1" parent="0" />
        <mxCell id="qSF7ededa2xcUucs1vkr-1" value="FarmAhead" style="rounded=1;whiteSpace=wrap;html=1;" vertex="1" parent="1">
          <mxGeometry x="100" y="170" width="120" height="60" as="geometry" />
        </mxCell>
        <mxCell id="qSF7ededa2xcUucs1vkr-2" value="ESGreenTool" style="rounded=1;whiteSpace=wrap;html=1;" vertex="1" parent="1">
          <mxGeometry x="450" y="170" width="120" height="60" as="geometry" />
        </mxCell>
        <mxCell id="qSF7ededa2xcUucs1vkr-3" value="" style="rounded=1;whiteSpace=wrap;html=1;" vertex="1" parent="1">
          <mxGeometry x="100" y="240" width="120" height="20" as="geometry" />
        </mxCell>
        <mxCell id="qSF7ededa2xcUucs1vkr-4" value="&lt;font style=&quot;font-size: 33px;&quot;&gt;FarmAhead&lt;/font&gt;" style="rounded=1;whiteSpace=wrap;html=1;align=center;" vertex="1" parent="1">
          <mxGeometry x="90.5" y="-2110" width="349.5" height="60" as="geometry" />
        </mxCell>
        <mxCell id="qSF7ededa2xcUucs1vkr-85" style="edgeStyle=orthogonalEdgeStyle;rounded=0;orthogonalLoop=1;jettySize=auto;html=1;exitX=1;exitY=0.5;exitDx=0;exitDy=0;entryX=0;entryY=0.5;entryDx=0;entryDy=0;" edge="1" parent="1" source="qSF7ededa2xcUucs1vkr-10" target="qSF7ededa2xcUucs1vkr-62">
          <mxGeometry relative="1" as="geometry" />
        </mxCell>
        <mxCell id="qSF7ededa2xcUucs1vkr-10" value="&lt;font style=&quot;font-size: 14px;&quot;&gt;el&lt;/font&gt;" style="rounded=1;whiteSpace=wrap;html=1;fontSize=33;fillColor=#dae8fc;strokeColor=#6c8ebf;align=center;verticalAlign=bottom;" vertex="1" parent="1">
          <mxGeometry x="90" y="-1838" width="350" height="33" as="geometry" />
        </mxCell>
        <mxCell id="qSF7ededa2xcUucs1vkr-13" value="&lt;font style=&quot;font-size: 14px;&quot;&gt;stald&amp;nbsp;&lt;/font&gt;" style="rounded=1;whiteSpace=wrap;html=1;fontSize=33;align=center;" vertex="1" parent="1">
          <mxGeometry x="90.5" y="-1970" width="170" height="33" as="geometry" />
        </mxCell>
        <mxCell id="qSF7ededa2xcUucs1vkr-65" style="edgeStyle=orthogonalEdgeStyle;rounded=0;orthogonalLoop=1;jettySize=auto;html=1;exitX=1;exitY=0.5;exitDx=0;exitDy=0;" edge="1" parent="1" source="qSF7ededa2xcUucs1vkr-16" target="qSF7ededa2xcUucs1vkr-62">
          <mxGeometry relative="1" as="geometry" />
        </mxCell>
        <mxCell id="qSF7ededa2xcUucs1vkr-16" value="&lt;font style=&quot;font-size: 14px;&quot;&gt;fordøjelse&lt;/font&gt;" style="rounded=1;whiteSpace=wrap;html=1;fontSize=33;fillColor=#dae8fc;strokeColor=#6c8ebf;align=center;verticalAlign=bottom;" vertex="1" parent="1">
          <mxGeometry x="90.5" y="-1937" width="349.5" height="33" as="geometry" />
        </mxCell>
        <mxCell id="qSF7ededa2xcUucs1vkr-66" style="edgeStyle=orthogonalEdgeStyle;rounded=0;orthogonalLoop=1;jettySize=auto;html=1;exitX=1;exitY=0.5;exitDx=0;exitDy=0;" edge="1" parent="1" source="qSF7ededa2xcUucs1vkr-18" target="qSF7ededa2xcUucs1vkr-62">
          <mxGeometry relative="1" as="geometry" />
        </mxCell>
        <mxCell id="qSF7ededa2xcUucs1vkr-18" value="&lt;font style=&quot;font-size: 14px;&quot;&gt;indkøbt foder&lt;/font&gt;" style="rounded=1;whiteSpace=wrap;html=1;fontSize=33;fillColor=#dae8fc;strokeColor=#6c8ebf;align=center;verticalAlign=bottom;" vertex="1" parent="1">
          <mxGeometry x="90.5" y="-1904" width="349.5" height="33" as="geometry" />
        </mxCell>
        <mxCell id="qSF7ededa2xcUucs1vkr-67" style="edgeStyle=orthogonalEdgeStyle;rounded=0;orthogonalLoop=1;jettySize=auto;html=1;exitX=1;exitY=0.5;exitDx=0;exitDy=0;" edge="1" parent="1" source="qSF7ededa2xcUucs1vkr-20" target="qSF7ededa2xcUucs1vkr-62">
          <mxGeometry relative="1" as="geometry" />
        </mxCell>
        <mxCell id="qSF7ededa2xcUucs1vkr-20" value="&lt;span style=&quot;font-size: 14px;&quot;&gt;indkøbte dyr&lt;/span&gt;" style="rounded=1;whiteSpace=wrap;html=1;fontSize=33;fillColor=#dae8fc;strokeColor=#6c8ebf;align=center;verticalAlign=bottom;" vertex="1" parent="1">
          <mxGeometry x="90" y="-1871" width="350" height="33" as="geometry" />
        </mxCell>
        <mxCell id="qSF7ededa2xcUucs1vkr-64" style="edgeStyle=orthogonalEdgeStyle;rounded=0;orthogonalLoop=1;jettySize=auto;html=1;exitX=1;exitY=0.5;exitDx=0;exitDy=0;entryX=0;entryY=0.5;entryDx=0;entryDy=0;" edge="1" parent="1" source="qSF7ededa2xcUucs1vkr-22" target="qSF7ededa2xcUucs1vkr-62">
          <mxGeometry relative="1" as="geometry" />
        </mxCell>
        <mxCell id="qSF7ededa2xcUucs1vkr-22" value="&lt;font style=&quot;font-size: 14px;&quot;&gt;stald og lager&lt;/font&gt;" style="rounded=1;whiteSpace=wrap;html=1;fontSize=33;fillColor=#dae8fc;strokeColor=#6c8ebf;align=center;verticalAlign=bottom;" vertex="1" parent="1">
          <mxGeometry x="90.5" y="-1970" width="349.5" height="33" as="geometry" />
        </mxCell>
        <mxCell id="qSF7ededa2xcUucs1vkr-29" style="edgeStyle=orthogonalEdgeStyle;rounded=0;orthogonalLoop=1;jettySize=auto;html=1;exitX=0.5;exitY=1;exitDx=0;exitDy=0;" edge="1" parent="1">
          <mxGeometry relative="1" as="geometry">
            <mxPoint x="385" y="-1820" as="sourcePoint" />
            <mxPoint x="385" y="-1820" as="targetPoint" />
          </mxGeometry>
        </mxCell>
        <mxCell id="qSF7ededa2xcUucs1vkr-54" value="&lt;br&gt;&lt;span style=&quot;color: rgb(0, 0, 0); font-family: Helvetica; font-style: normal; font-variant-ligatures: normal; font-variant-caps: normal; font-weight: 400; letter-spacing: normal; orphans: 2; text-align: left; text-indent: 0px; text-transform: none; widows: 2; word-spacing: 0px; -webkit-text-stroke-width: 0px; white-space: normal; text-decoration-thickness: initial; text-decoration-style: initial; text-decoration-color: initial; float: none; display: inline !important;&quot;&gt;Samlet CO2e-udledning fra malkekvægsbedriften&lt;/span&gt;&lt;div&gt;&lt;br&gt;&lt;/div&gt;" style="ellipse;whiteSpace=wrap;html=1;aspect=fixed;fillColor=#e1d5e7;strokeColor=#9673a6;labelBackgroundColor=none;labelBorderColor=none;fontSize=20;" vertex="1" parent="1">
          <mxGeometry x="1190" y="-1888" width="270" height="270" as="geometry" />
        </mxCell>
        <mxCell id="qSF7ededa2xcUucs1vkr-55" value="&lt;font style=&quot;font-size: 33px;&quot;&gt;ESGreenTool&lt;/font&gt;" style="rounded=1;whiteSpace=wrap;html=1;align=center;" vertex="1" parent="1">
          <mxGeometry x="100" y="-1550" width="350" height="60" as="geometry" />
        </mxCell>
        <mxCell id="qSF7ededa2xcUucs1vkr-59" value="&lt;font style=&quot;font-size: 14px;&quot;&gt;Beregnede produktaftryk (kg Co2e/kg FPCM)&lt;/font&gt;" style="rounded=1;whiteSpace=wrap;html=1;fontSize=33;fillColor=#1ba1e2;strokeColor=#006EAF;align=center;verticalAlign=bottom;fontColor=#ffffff;" vertex="1" parent="1">
          <mxGeometry x="90.5" y="-2030" width="349.5" height="33" as="geometry" />
        </mxCell>
        <mxCell id="qSF7ededa2xcUucs1vkr-72" style="edgeStyle=orthogonalEdgeStyle;rounded=0;orthogonalLoop=1;jettySize=auto;html=1;" edge="1" parent="1" source="qSF7ededa2xcUucs1vkr-61" target="qSF7ededa2xcUucs1vkr-54">
          <mxGeometry relative="1" as="geometry" />
        </mxCell>
        <mxCell id="qSF7ededa2xcUucs1vkr-61" value="&lt;font style=&quot;font-size: 14px;&quot;&gt;samlet udledning fra marken (inkl. hjemmeavlet foder og salgsafgrøder)&lt;/font&gt;" style="rounded=1;whiteSpace=wrap;html=1;fontSize=33;fillColor=#dae8fc;strokeColor=#6c8ebf;align=center;verticalAlign=bottom;" vertex="1" parent="1">
          <mxGeometry x="100.5" y="-1410" width="349.5" height="110" as="geometry" />
        </mxCell>
        <mxCell id="qSF7ededa2xcUucs1vkr-73" style="edgeStyle=orthogonalEdgeStyle;rounded=0;orthogonalLoop=1;jettySize=auto;html=1;exitX=1;exitY=0.5;exitDx=0;exitDy=0;" edge="1" parent="1" source="qSF7ededa2xcUucs1vkr-62" target="qSF7ededa2xcUucs1vkr-63">
          <mxGeometry relative="1" as="geometry" />
        </mxCell>
        <mxCell id="qSF7ededa2xcUucs1vkr-62" value="&lt;p style=&quot;line-height: 30%;&quot;&gt;&lt;span style=&quot;font-size: 14px;&quot;&gt;tilføjelse af kødets aftryk&lt;/span&gt;&lt;/p&gt;" style="rounded=1;whiteSpace=wrap;html=1;fontSize=33;fillColor=#cce5ff;strokeColor=#36393d;arcSize=9;align=center;verticalAlign=middle;" vertex="1" parent="1">
          <mxGeometry x="540" y="-1911.25" width="180" height="47.5" as="geometry" />
        </mxCell>
        <mxCell id="qSF7ededa2xcUucs1vkr-74" style="edgeStyle=orthogonalEdgeStyle;rounded=0;orthogonalLoop=1;jettySize=auto;html=1;exitX=1;exitY=0.5;exitDx=0;exitDy=0;entryX=0;entryY=0.5;entryDx=0;entryDy=0;" edge="1" parent="1" source="qSF7ededa2xcUucs1vkr-63" target="qSF7ededa2xcUucs1vkr-54">
          <mxGeometry relative="1" as="geometry" />
        </mxCell>
        <mxCell id="qSF7ededa2xcUucs1vkr-63" value="&lt;p style=&quot;line-height: 30%;&quot;&gt;&lt;span style=&quot;font-size: 14px;&quot;&gt;gange med mængden af mælk&lt;/span&gt;&lt;br&gt;&lt;/p&gt;" style="rounded=1;whiteSpace=wrap;html=1;fontSize=33;fillColor=#cce5ff;strokeColor=#36393d;arcSize=9;align=center;verticalAlign=middle;" vertex="1" parent="1">
          <mxGeometry x="790" y="-1911.25" width="160" height="47.5" as="geometry" />
        </mxCell>
        <mxCell id="qSF7ededa2xcUucs1vkr-79" style="edgeStyle=orthogonalEdgeStyle;rounded=0;orthogonalLoop=1;jettySize=auto;html=1;exitX=1;exitY=0.5;exitDx=0;exitDy=0;" edge="1" parent="1" source="qSF7ededa2xcUucs1vkr-70" target="qSF7ededa2xcUucs1vkr-77">
          <mxGeometry relative="1" as="geometry" />
        </mxCell>
        <mxCell id="qSF7ededa2xcUucs1vkr-70" value="&lt;font style=&quot;font-size: 14px;&quot;&gt;samlet elforbrug til mark&lt;/font&gt;" style="rounded=1;whiteSpace=wrap;html=1;fontSize=33;fillColor=#dae8fc;strokeColor=#6c8ebf;align=center;verticalAlign=bottom;" vertex="1" parent="1">
          <mxGeometry x="100.5" y="-1460" width="349.5" height="33" as="geometry" />
        </mxCell>
        <mxCell id="qSF7ededa2xcUucs1vkr-80" style="edgeStyle=orthogonalEdgeStyle;rounded=0;orthogonalLoop=1;jettySize=auto;html=1;exitX=1;exitY=0.5;exitDx=0;exitDy=0;" edge="1" parent="1" source="qSF7ededa2xcUucs1vkr-77" target="qSF7ededa2xcUucs1vkr-54">
          <mxGeometry relative="1" as="geometry">
            <mxPoint x="1010" y="-1730" as="targetPoint" />
          </mxGeometry>
        </mxCell>
        <mxCell id="qSF7ededa2xcUucs1vkr-77" value="&lt;font&gt;samlet elforbrug til mark trækkes fra, da det antages at være opgivet i el fra FarmAhead&lt;/font&gt;" style="shape=hexagon;perimeter=hexagonPerimeter2;whiteSpace=wrap;html=1;fixedSize=1;fontSize=13;" vertex="1" parent="1">
          <mxGeometry x="750" y="-1530" width="200" height="60" as="geometry" />
        </mxCell>
        <mxCell id="qSF7ededa2xcUucs1vkr-81" value="hængeparti: slagtekalvens bidrag??" style="rounded=0;whiteSpace=wrap;html=1;" vertex="1" parent="1">
          <mxGeometry x="1010" y="-2140" width="160" height="90" as="geometry" />
        </mxCell>
      </root>
    </mxGraphModel>
  </diagram>
</mxfile>
